<svg xmlns="http://www.w3.org/2000/svg" xmlns:xlink="http://www.w3.org/1999/xlink" width="150" height="40" viewBox="0 0 150 40">
  <defs>
    <clipPath id="clip-logo">
      <rect width="150" height="40"/>
    </clipPath>
  </defs>
  <g id="logo" clip-path="url(#clip-logo)">
    <g id="logo-2" data-name="logo" transform="translate(-3.5 -5.1)">
      <path id="Path_10650" data-name="Path 10650" d="M14.128,13.536V10.482H7.5V8.009h6.628V5.1h4.1V8.009h8.316V5.1h4.1V8.009h6.628v2.327H30.639v3.055h-4.1V10.482H18.226v3.055ZM8.344,15.427H18.588V42.773H8.344Zm6.508,11.782V17.755H12.08v9.455Zm0,13.236V29.536H12.08V40.446Zm4.7-17.6h7.231V19.209H20.516V16.882h6.267V14.555h4.1v2.327h6.146v2.327H30.76v3.636h7.231v2.327H19.552Zm.723,5.964H30.4V26.046h4.1v2.764h3.133v2.473H34.5v8.145c0,4.655-3.254,6.691-10.967,4.8l.121-3.055c4.821,1.6,6.749,2.182,6.749-2.764V31.136H20.275ZM23.408,32.3a41.222,41.222,0,0,1,4.941,5.818l-3.133,2.036a34.36,34.36,0,0,0-4.459-5.818Z" transform="translate(0 0)" fill="#fff"/>
      <path id="Path_10651" data-name="Path 10651" d="M48.929,28.664H37.6V26.191H50.977V22.845h4.339v3.345H68.693v2.473H57.485A49.3,49.3,0,0,0,68.693,39.718L65.68,41.9c-4.7-3.782-8.557-7.855-10.244-11.491V44.955H51.1V30.991c-1.567,3.2-5.3,7.418-10.244,11.2l-3.133-2.036C42.541,36.809,47,32.009,48.929,28.664ZM40.251,10.191a27.278,27.278,0,0,1,5.785,3.782l-2.531,2.036a25.982,25.982,0,0,0-5.544-3.927Zm-.964-3.055L41.457,5.1a37.952,37.952,0,0,1,6.026,3.636l-2.41,2.182A29.35,29.35,0,0,0,39.287,7.136Zm6.99,8.873,3.374,1.6a56.792,56.792,0,0,1-6.869,7.418l-3.254-1.891A47.4,47.4,0,0,0,46.277,16.009Zm7.713-5.964V5.1h4.218V9.609l10.123-.873.482,2.618-10.606.873v5.382c0,1.309.723,2.036,2.892,2.036h7.111l-1.446,2.618H60.86c-4.339,0-6.869-1.745-6.869-4.509V12.664l-6.387.582-.482-2.473Z" transform="translate(6.176 0)" fill="#fff"/>
      <path id="Path_10652" data-name="Path 10652" d="M73.885,13.536l4.1,1.309A85.188,85.188,0,0,1,72.2,33.173l-4.1-2.036A90.749,90.749,0,0,0,73.885,13.536Zm8.436,24.582V5.1H86.78V39.282c0,5.236-4.1,6.982-13.257,4.364l.482-2.909C81.116,42.773,82.321,42.773,82.321,38.118ZM94.855,13.391a110.238,110.238,0,0,1,4.821,17.6l-4.459,2.036A113.758,113.758,0,0,0,91,14.991Z" transform="translate(12.433 0)" fill="#fff"/>
      <path id="Path_10653" data-name="Path 10653" d="M130.055,12.955h-6.508v3.636h6.146V41.318c0,2.327-.964,3.636-4.339,3.636h-.241l-.964-2.327h1.326c.844,0,.844-.436.844-1.309V35.646h-2.651V45.1h-3.616V35.646H117.4V45.1h-3.495V16.591h6.146V12.955h-5.905l.241.291-2.41,2.618-.6-.727v2.327H108.6v4.218h4.58v2.327H108.6v4.655h3.857V44.373H100.89V28.809h3.857V24.155h-4.58V21.827h4.58V17.609h-2.892V16.3l-1.205,1.455-2.049-3.2A34.366,34.366,0,0,0,104.626,5.1H108.6a44.952,44.952,0,0,0,4.821,7.273V10.627h6.508V5.1h3.616V6.118l2.29-.873a26.724,26.724,0,0,1,3.374,4.218l-2.772,1.164a21.165,21.165,0,0,0-2.772-4.218v4.218h6.508v2.327Zm-18.8,2.182A46.713,46.713,0,0,1,106.8,8.445a37.966,37.966,0,0,1-4.1,6.691Zm-2.41,27.055V31.136h-4.339V42.046h4.339Zm11.088-17.455V18.918H117.28v5.818Zm0,8.582V27.064H117.28v6.255Zm6.267-8.582V18.918h-2.651v5.818Zm0,8.582V27.064h-2.651v6.255Z" transform="translate(18.691)" fill="#fff"/>
    </g>
  </g>
</svg>
