<svg width="150" height="39" viewBox="0 0 150 39" fill="none" xmlns="http://www.w3.org/2000/svg">
<path d="M14.72 31.08C15.48 32.36 16.52 33.48 17.88 34.8L16.36 36.72C15.12 35.56 14.16 34.44 13.36 33.28C12.52 34.48 11.44 35.68 10.16 36.84L8.68 34.88C10.12 33.64 11.24 32.32 12.08 31C10.88 28.24 10.48 24.84 10.48 19.56L12.6 19.08C12.6 23.36 12.84 26.2 13.48 28.32C14.92 24.92 15.04 21.36 15.08 17.88H9.6C9.36 25.76 8.92 31.36 8.08 36.8L5.92 34.6C7.12 27.12 7.48 19.4 7.48 4.68H11.48V0.759999H13.64V4.68H17.4V12.68H15.24V6.84H13.64V15.72H17.2V17.88C17.12 22.44 16.92 26.88 14.72 31.08ZM0.52 20.72C3 16.24 4.4 11.84 5.12 9L7 10.36C6.56 11.88 6.04 13.44 5.44 15.12V36.76H3.28V19.12C2.96 20.6 2.48 22.36 1.88 23.56L0.52 20.72ZM0.52 12.2C2.16 8.88 3.76 4.36 4.6 0.799998L6.44 2.16C5.72 5.16 4.04 10.36 1.96 14.52L0.52 12.2ZM9.64 15.72H11.48V6.84H9.72C9.72 10.12 9.68 13.04 9.64 15.72ZM37.8306 6.32V8.56H28.5906C28.5906 10.88 28.5106 13.12 28.3906 15.36H36.3906C36.5106 20.4 36.2306 27.08 35.7506 31.72C35.2306 36.56 33.2706 38.08 27.9906 35.48L28.3506 32.76C32.5506 35.2 32.9506 35.08 33.4306 30.84C33.8306 27.08 34.1506 22.2 34.1906 17.6H28.2706C27.7106 24 26.4706 30.24 23.5106 36.8L21.3106 35.44C25.8306 26.2 26.2306 15.36 26.2706 8.56H21.5506V6.32H28.5506V0.759999H30.8706V6.32H37.8306ZM46.9013 1.64C46.6213 2.88 46.1813 4.44 45.6612 6.2V20.6H43.5013V10.6C43.2613 12.04 42.8613 13.76 42.4613 14.88L40.9813 12.08C43.0213 8.16 44.5013 3.24 44.9413 0.759999L46.9013 1.64ZM41.3813 32.32C42.2213 29.48 42.8613 25.76 43.1413 23.6L45.0213 24.92C44.7413 26.92 44.1013 30.56 43.2613 34.04L41.3813 32.32ZM45.8613 32.36V21.84H48.1013V31.96C48.1013 33.64 49.0613 34.56 50.3013 34.56C51.5412 34.56 52.5013 33.64 52.5013 31.96V28.04H54.7413V32.36C54.7413 34.92 52.8613 36.8 50.3013 36.8C47.7413 36.8 45.8613 34.92 45.8613 32.36ZM47.2613 18.16V4.6H49.1013V10.08C50.3813 6.4 51.2213 3.76 51.7813 0.759999L53.7413 1.64C53.5813 2.44 53.3813 3.36 53.1013 4.28H58.0613V6.52H56.5013C56.5413 9.96 56.1413 12.56 55.2213 14.8C56.1013 16.2 57.1813 17.52 58.5013 18.76L56.9813 20.64C55.8213 19.56 54.8613 18.36 54.0213 17.04C53.1813 18.32 52.1413 19.52 50.8213 20.72L49.3013 18.76C50.8213 17.44 51.9413 16.12 52.7813 14.64C52.0213 12.92 51.5013 11.08 51.2613 9.24C51.0613 10.44 50.7813 11.72 50.3813 12.72L49.1013 11.08V18.16H47.2613ZM49.0213 22.52L50.4613 20.92C51.3013 22.44 52.4213 24.88 53.0613 26.84L51.3413 28.64C50.6213 26.16 49.7013 23.76 49.0213 22.52ZM52.4613 6.64C52.6613 8.56 53.1013 10.36 53.7813 12.04C54.2213 10.48 54.3813 8.72 54.3413 6.52H52.4613V6.64ZM54.5013 24.68L56.1413 23C56.9013 25.08 57.7413 27.72 58.5013 31.48L56.5413 33.2C55.9813 29.64 55.2613 26.84 54.5013 24.68ZM61.7719 10.52C61.7719 4.8 64.6119 3.2 67.8119 3.2C70.9319 3.2 73.6119 4.8 73.6119 10.52V12.64H70.8919V10.84C70.8919 6.76 69.6519 5.84 67.8119 5.84C65.9719 5.84 64.4919 6.76 64.4919 10.84V27.04C64.4919 30.72 66.0519 31.68 67.8119 31.68C69.5719 31.68 70.8919 30.72 70.8919 27.04V19.96H68.1719V17.2H73.6119V27.56C73.6119 32.6 70.9319 34.4 67.8119 34.4C64.6119 34.4 61.7719 32.6 61.7719 27.56V10.52ZM76.6547 10.52C76.6547 4.8 79.6947 3.2 82.8947 3.2C86.0147 3.2 88.8947 4.8 88.8947 10.52V27.56C88.8947 32.6 86.0147 34.4 82.8947 34.4C79.6947 34.4 76.6547 32.6 76.6547 27.56V10.52ZM79.3747 27.04C79.3747 30.72 81.2147 31.76 82.8947 31.76C84.5747 31.76 86.1747 30.72 86.1747 27.04V10.92C86.1747 6.84 84.7347 5.84 82.8947 5.84C81.0547 5.84 79.3747 6.84 79.3747 10.92V27.04ZM101.924 4.32V33.28H109.284V35.6H92.0844V33.28H99.4444V4.32H93.3644V2H108.004V4.32H101.924ZM129.635 6.32V8.56H125.315V15.76H128.835V17.92H125.315V25.12H128.915V27.28H125.315V36.8H123.075V8.56H122.155C121.555 11.88 120.675 15.56 119.555 19.32L117.635 17.08C119.635 10.72 120.715 5 121.195 0.679997L123.275 1.6C123.115 2.96 122.875 4.56 122.595 6.32H129.635ZM112.475 17.24C114.635 11.04 115.755 4.64 116.315 0.799998L118.315 1.64C118.115 3.08 117.875 4.72 117.555 6.56V36.8H115.395V14.12C115.075 16.12 114.635 18.32 113.955 20.48L112.475 17.24ZM139.106 11.6H135.386V10.24H133.306V4H140.306V0.799998H142.706V4H149.706V10.24H147.626V11.6H141.386C140.906 13.64 140.066 16.2 139.106 18.48C141.266 18.32 143.666 18.04 145.426 17.64C144.826 16.04 144.226 14.72 143.786 13.8L145.546 12.44C146.466 14.2 147.866 17.4 148.986 20.92L147.026 22.52C146.746 21.6 146.466 20.68 146.186 19.84C142.586 20.68 136.266 21.08 134.946 21.08L134.546 18.68C134.946 18.68 135.706 18.68 136.666 18.6C137.706 16.04 138.586 13.56 139.106 11.6ZM133.346 36V33.68H140.426V28.4H134.906V26.08H140.426V21.4H142.746V26.08H148.306V28.4H142.746V33.68H149.746V36H133.346ZM135.546 9.28H147.466V6.24H135.546V9.28Z" fill="white"/>
</svg>
